<svg width="16" height="16" viewBox="4 6 19 11" fill = "none" xmlns="http://www.w3.org/2000/svg">
    <path d="M23.9997 4.79801C23.1997 5.37201 22.3997 5.77201 21.4997 5.97201C22.3997 5.37201 23.0997 4.57201 23.3997 3.57201C22.5997 4.07201 21.7997 4.37201 21.0997 4.47201C20.2997 3.67201 19.1997 3.17201 17.9997 3.17201C15.4997 3.17201 13.2997 5.37201 13.2997 7.97201C13.2997 8.37201 13.3997 8.77201 13.5997 9.12201C9.19971 8.92201 5.19971 7.07201 2.59971 3.87201C2.19971 4.57201 1.99971 5.37201 1.99971 6.17201C1.99971 7.97201 3.39971 9.62201 5.19971 10.072C4.39971 10.272 3.59971 10.322 2.79971 10.122C2.79971 10.122 2.79971 10.122 2.79971 10.122C2.79971 12.272 4.49971 14.072 6.69971 14.522C6.29971 14.622 5.89971 14.672 5.49971 14.672C5.19971 14.672 4.89971 14.622 4.59971 14.572C5.29971 16.322 7.09971 17.672 9.19971 17.772C7.89971 18.572 6.39971 19.072 4.79971 19.072C4.49971 19.072 4.19971 19.052 3.89971 19.022C6.09971 20.422 8.59971 21.272 11.2997 21.272C17.9997 21.272 21.7997 15.472 21.7997 10.772C21.7997 10.572 21.7997 10.372 21.7997 10.172C22.5997 9.57201 23.1997 8.77201 23.5997 7.87201C23.1997 8.17201 22.7997 8.42201 22.3997 8.62201C22.9997 7.97201 23.4997 7.12201 23.7997 6.17201C23.3997 6.47201 22.9997 6.72201 22.5997 6.97201C23.1997 6.32201 23.6997 5.52201 23.9997 4.79801Z" fill="white"/>
</svg>
